<svg width="103" height="69" viewBox="0 0 103 69" fill="none" xmlns="http://www.w3.org/2000/svg">
<rect x="1.5" y="1.5" width="100" height="66" fill="white" stroke="black" stroke-width="3"/>
<line x1="9" y1="61" x2="91" y2="61" stroke="black" stroke-width="2"/>
<circle cx="66.5" cy="61.5" r="2.5" fill="#949494"/>
<circle cx="60" cy="19" r="6" fill="black"/>
<line x1="58.8" y1="22.6" x2="46.8" y2="38.6" stroke="black" stroke-width="2"/>
<line x1="46.6585" y1="37.2474" x2="54.6585" y2="44.2474" stroke="black" stroke-width="2"/>
<line x1="53.9923" y1="43.124" x2="52.9923" y2="51.124" stroke="black" stroke-width="2"/>
<line x1="61.6999" y1="37.9539" x2="55.967" y2="36.1505" stroke="black" stroke-width="2"/>
<line x1="57.2124" y1="36.8169" x2="54.0785" y2="29.3887" stroke="black" stroke-width="2"/>
<line x1="45.7686" y1="30.3881" x2="49.3607" y2="25.5699" stroke="black" stroke-width="2"/>
<line x1="48.3214" y1="26.5264" x2="56.3675" y2="26.0158" stroke="black" stroke-width="2"/>
<line x1="47.6585" y1="37.7526" x2="39.6585" y2="44.7526" stroke="black" stroke-width="2"/>
<line x1="41.2407" y1="44.6508" x2="35.2407" y2="37.6508" stroke="black" stroke-width="2"/>
<circle cx="37.9647" cy="16.9446" r="6" transform="rotate(1.22818 37.9647 16.9446)" fill="#BFBFBF"/>
<line x1="36.6873" y1="20.5184" x2="24.3472" y2="36.2575" stroke="#BFBFBF" stroke-width="2"/>
<line x1="24.235" y1="34.9018" x2="32.0832" y2="42.0717" stroke="#BFBFBF" stroke-width="2"/>
<line x1="31.4415" y1="40.9343" x2="30.2703" y2="48.9111" stroke="#BFBFBF" stroke-width="2"/>
<line x1="39.2577" y1="35.9307" x2="33.5648" y2="34.0048" stroke="#BFBFBF" stroke-width="2"/>
<line x1="34.7961" y1="34.698" x2="31.8221" y2="27.2043" stroke="#BFBFBF" stroke-width="2"/>
<line x1="23.4925" y1="28.0254" x2="27.1871" y2="23.2853" stroke="#BFBFBF" stroke-width="2"/>
<line x1="26.127" y1="24.2191" x2="34.1822" y2="23.8811" stroke="#BFBFBF" stroke-width="2"/>
<line x1="25.2243" y1="35.4286" x2="17.0761" y2="42.2555" stroke="#BFBFBF" stroke-width="2"/>
<line x1="18.6596" y1="42.1876" x2="12.811" y2="35.0606" stroke="#BFBFBF" stroke-width="2"/>
<circle cx="72.8603" cy="18.1709" r="6" transform="rotate(-29.353 72.8603 18.1709)" fill="#BFBFBF"/>
<line x1="73.5783" y1="21.8969" x2="70.962" y2="41.7251" stroke="#BFBFBF" stroke-width="2"/>
<line x1="70.1758" y1="40.6155" x2="80.58" y2="42.7953" stroke="#BFBFBF" stroke-width="2"/>
<line x1="79.4491" y1="42.1427" x2="82.499" y2="49.6058" stroke="#BFBFBF" stroke-width="2"/>
<line x1="83.6328" y1="33.8579" x2="77.7519" y2="35.0963" stroke="#BFBFBF" stroke-width="2"/>
<line x1="79.1638" y1="35.0668" x2="72.791" y2="30.1285" stroke="#BFBFBF" stroke-width="2"/>
<line x1="66.0375" y1="35.0727" x2="66.8066" y2="29.1123" stroke="#BFBFBF" stroke-width="2"/>
<line x1="66.3697" y1="30.4556" x2="73.1324" y2="26.0664" stroke="#BFBFBF" stroke-width="2"/>
<line x1="71.2954" y1="40.5656" x2="67.7538" y2="50.5884" stroke="#BFBFBF" stroke-width="2"/>
<line x1="69.083" y1="49.7241" x2="60.422" y2="46.5639" stroke="#BFBFBF" stroke-width="2"/>
</svg>
