<svg xmlns="http://www.w3.org/2000/svg" viewBox="0 0 255.12 80.78"><defs><style>.cls-1,.cls-2{fill:#e2bc23;}.cls-1{fill-rule:evenodd;}</style></defs><title>caffier-3</title><g id="Layer_2" data-name="Layer 2"><g id="Foreground"><path class="cls-1" d="M4.94,69.67A.23.23,0,0,1,5,69.49a.27.27,0,0,1,.18-.07h5.95a.28.28,0,0,1,.18.06.25.25,0,0,1,.09.18V71a.31.31,0,0,1-.07.19.23.23,0,0,1-.2.09H9.25v6.06a.26.26,0,0,1-.07.18.24.24,0,0,1-.19.08H7.36a.26.26,0,0,1-.18-.07.24.24,0,0,1-.08-.19V71.33H5.2A.26.26,0,0,1,5,71.26.28.28,0,0,1,4.94,71Z"/><path class="cls-1" d="M17.56,73.53a2.35,2.35,0,0,0,.15.86,2.12,2.12,0,0,0,.43.69,2,2,0,0,0,.66.46,2.17,2.17,0,0,0,1.68,0,2,2,0,0,0,.66-.46,2.12,2.12,0,0,0,.43-.69,2.45,2.45,0,0,0,0-1.71,2.14,2.14,0,0,0-.43-.7,2.06,2.06,0,0,0-3,0,2.15,2.15,0,0,0-.43.7A2.36,2.36,0,0,0,17.56,73.53Zm-2.14,0A4.21,4.21,0,0,1,16,71.4a4.29,4.29,0,0,1,.66-.86,4.12,4.12,0,0,1,.85-.66,4.34,4.34,0,0,1,1-.43,4.23,4.23,0,0,1,2.25,0,4.33,4.33,0,0,1,1,.43A4.2,4.2,0,0,1,23.3,71.4a4.39,4.39,0,0,1,.43,1,4.25,4.25,0,0,1,0,2.25,4.28,4.28,0,0,1-.43,1,4.16,4.16,0,0,1-.66.85,4.32,4.32,0,0,1-.86.66,4.23,4.23,0,0,1-4.27,0A4.29,4.29,0,0,1,16,75.68a4.13,4.13,0,0,1-.43-1A4.2,4.2,0,0,1,15.42,73.54Z"/><path class="cls-1" d="M27.88,69.68a.27.27,0,0,1,.06-.19.23.23,0,0,1,.18-.07h3.57a2.68,2.68,0,0,1,1.07.21,2.78,2.78,0,0,1,.87.58,2.7,2.7,0,0,1,.58.86,2.59,2.59,0,0,1,.21,1,2.48,2.48,0,0,1-.1.72,2.68,2.68,0,0,1-.28.64,2.71,2.71,0,0,1-.43.54,2.83,2.83,0,0,1-.55.41l1.42,2.68.1.18a.38.38,0,0,1,.06.18.16.16,0,0,1-.06.14.24.24,0,0,1-.16,0h-1.9a.28.28,0,0,1-.17-.06.25.25,0,0,1-.1-.15l-1.34-2.53H30v2.49q0,.24-.25.24H28.12a.26.26,0,0,1-.18-.06.23.23,0,0,1-.07-.18Zm4.32,2.46a1,1,0,0,0-.06-.33,1.08,1.08,0,0,0-.17-.3,1,1,0,0,0-.26-.23.9.9,0,0,0-.34-.12l-.29,0H30v2h1.19l.17,0a.86.86,0,0,0,.35-.11.9.9,0,0,0,.26-.23,1,1,0,0,0,.16-.3A1.11,1.11,0,0,0,32.19,72.14Z"/><path class="cls-1" d="M38.63,69.68a.27.27,0,0,1,.06-.19.23.23,0,0,1,.18-.07h3.57a2.68,2.68,0,0,1,1.07.21,2.78,2.78,0,0,1,.87.58,2.7,2.7,0,0,1,.58.86,2.59,2.59,0,0,1,.21,1,2.48,2.48,0,0,1-.1.72A2.68,2.68,0,0,1,44.35,74a2.83,2.83,0,0,1-.55.41l1.42,2.68.1.18a.38.38,0,0,1,.06.18.16.16,0,0,1-.06.14.24.24,0,0,1-.16,0h-1.9a.28.28,0,0,1-.17-.06.25.25,0,0,1-.1-.15l-1.34-2.53h-.89v2.49q0,.24-.25.24H38.87a.26.26,0,0,1-.18-.06.23.23,0,0,1-.07-.18Zm4.32,2.46a1,1,0,0,0-.06-.33,1.08,1.08,0,0,0-.17-.3,1,1,0,0,0-.26-.23.9.9,0,0,0-.34-.12l-.29,0H40.77v2H42l.17,0a.86.86,0,0,0,.35-.11.9.9,0,0,0,.26-.23,1,1,0,0,0,.16-.3A1.11,1.11,0,0,0,42.95,72.14Z"/><path class="cls-1" d="M49.38,69.68a.26.26,0,0,1,.06-.19.23.23,0,0,1,.18-.07h5.48a.24.24,0,0,1,.19.07.27.27,0,0,1,.07.19v1.37a.29.29,0,0,1-.07.18.23.23,0,0,1-.19.09H51.53V72.7h2.76a.29.29,0,0,1,.17,0,.19.19,0,0,1,.07.17v1.2a.23.23,0,0,1-.06.15.22.22,0,0,1-.18.07H51.53v1.4h3.71a.22.22,0,0,1,.25.25v1.39a.14.14,0,0,1,0,.1q0,.15-.23.15H49.63a.26.26,0,0,1-.18-.06.23.23,0,0,1-.07-.18Z"/><path class="cls-1" d="M59.48,69.68a.25.25,0,0,1,.06-.18.22.22,0,0,1,.15-.07H65a.24.24,0,0,1,.19.07.28.28,0,0,1,.06.19v1.37a.29.29,0,0,1-.07.18.23.23,0,0,1-.19.09H61.63V73h2.48a.27.27,0,0,1,.18.06.23.23,0,0,1,.07.19v1.33a.3.3,0,0,1-.06.18.2.2,0,0,1-.17.09H61.63v2.53q0,.24-.25.24H59.68a.21.21,0,0,1-.2-.23Z"/><path class="cls-1" d="M72.26,69.64a.17.17,0,0,1,0-.07l.07-.07.09-.05.09,0H74a.23.23,0,0,1,.16.06l.1.1.14.32,2.9,7.49a.16.16,0,0,1,0,.18.27.27,0,0,1-.21.07H75.46a.35.35,0,0,1-.2,0,.31.31,0,0,1-.11-.16l-.22-.56-.21-.56H71.8l-.21.56-.21.56a.28.28,0,0,1-.28.2H69.46a.27.27,0,0,1-.17-.06.13.13,0,0,1,0-.17Zm1,2.37q-.1.28-.21.61l-.21.66-.21.66q-.11.32-.21.61h1.7Z"/><path class="cls-1" d="M87.87,70a.34.34,0,0,1,.14.14.23.23,0,0,1,0,.21l-.93,1.33a.22.22,0,0,1-.13.11.24.24,0,0,1-.17,0,2.1,2.1,0,0,0-.6-.32,2.13,2.13,0,0,0-.69-.11A2,2,0,0,0,84,72a2.17,2.17,0,0,0-.43.7,2.42,2.42,0,0,0,0,1.7,2.15,2.15,0,0,0,.43.69,2,2,0,0,0,1.49.64,2.15,2.15,0,0,0,1.3-.43.25.25,0,0,1,.17,0,.23.23,0,0,1,.13.1L88,76.69a.22.22,0,0,1,0,.21.36.36,0,0,1-.14.14,4.38,4.38,0,0,1-1.12.54,4.12,4.12,0,0,1-1.26.19,4.18,4.18,0,0,1-2.13-.58,4.29,4.29,0,0,1-1.52-1.51,4.14,4.14,0,0,1-.43-1,4.24,4.24,0,0,1,.43-3.27,4.29,4.29,0,0,1,.66-.86,4.13,4.13,0,0,1,.85-.66,4.34,4.34,0,0,1,1-.43,4.27,4.27,0,0,1,2.37,0A4.29,4.29,0,0,1,87.87,70Z"/><path class="cls-1" d="M98.63,70a.34.34,0,0,1,.14.14.23.23,0,0,1,0,.21l-.93,1.33a.22.22,0,0,1-.13.11.24.24,0,0,1-.17,0,2.1,2.1,0,0,0-.6-.32,2.13,2.13,0,0,0-.69-.11,2,2,0,0,0-1.49.64,2.17,2.17,0,0,0-.43.7,2.42,2.42,0,0,0,0,1.7,2.15,2.15,0,0,0,.43.69,2,2,0,0,0,1.49.64,2.15,2.15,0,0,0,1.3-.43.25.25,0,0,1,.17,0,.23.23,0,0,1,.13.1l.94,1.36a.22.22,0,0,1,0,.21.36.36,0,0,1-.14.14,4.38,4.38,0,0,1-1.12.54,4.12,4.12,0,0,1-1.26.19,4.18,4.18,0,0,1-2.13-.58,4.29,4.29,0,0,1-1.52-1.51,4.14,4.14,0,0,1-.43-1,4.24,4.24,0,0,1,.43-3.27,4.29,4.29,0,0,1,.66-.86,4.14,4.14,0,0,1,.85-.66,4.34,4.34,0,0,1,1-.43,4.27,4.27,0,0,1,2.37,0A4.29,4.29,0,0,1,98.63,70ZM97,77.64a.24.24,0,0,0-.12.19A.22.22,0,0,0,97,78l.21.16.27.17a1.6,1.6,0,0,1,.27.21,1.16,1.16,0,0,1,.21.27.72.72,0,0,1,.09.36.84.84,0,0,1-.14.43,2,2,0,0,1-.38.45,3.21,3.21,0,0,1-.59.41,3.85,3.85,0,0,1-.76.32h0q-.08,0-.18-.12a2,2,0,0,1-.19-.28,2.7,2.7,0,0,1-.15-.3.67.67,0,0,1-.06-.2.13.13,0,0,1,.06-.12q.94-.24.94-.59a.32.32,0,0,0-.08-.22,1.13,1.13,0,0,0-.21-.18L96,78.6l-.27-.19a1,1,0,0,1-.21-.22.51.51,0,0,1-.07-.41.33.33,0,0,1,.09-.14Z"/><path class="cls-1" d="M105.82,69.64a.16.16,0,0,1,0-.07l.07-.07.09-.05.09,0h1.41a.23.23,0,0,1,.16.06l.1.1.14.32,2.9,7.49a.16.16,0,0,1,0,.18.27.27,0,0,1-.21.07H109a.35.35,0,0,1-.2,0,.31.31,0,0,1-.11-.16l-.22-.56-.21-.56h-2.93l-.21.56-.21.56a.28.28,0,0,1-.28.2H103a.27.27,0,0,1-.17-.06.13.13,0,0,1,0-.17Zm1,2.37q-.1.28-.21.61l-.21.66-.21.66q-.11.32-.21.61h1.7Zm-1.93-4.33a1.44,1.44,0,0,1,.25-.27,1.65,1.65,0,0,1,.31-.21,1.57,1.57,0,0,1,.34-.13,1.45,1.45,0,0,1,.35,0l.22,0,.25.08.31.15.38.23.12.06.13,0a.37.37,0,0,0,.19,0,.67.67,0,0,0,.14-.12l.18-.22a.15.15,0,0,1,.11-.07.14.14,0,0,1,.11,0l.57.5a.38.38,0,0,1,.08.11s0,.07,0,.12l-.17.22a1.57,1.57,0,0,1-.55.48,1.46,1.46,0,0,1-.69.17,1.36,1.36,0,0,1-.44-.07,2,2,0,0,1-.43-.2l-.3-.19-.12-.06-.13,0a.39.39,0,0,0-.19,0,.5.5,0,0,0-.14.12l-.17.22a.14.14,0,0,1-.12.06.16.16,0,0,1-.13,0l-.57-.48,0-.05a.12.12,0,0,1,0-.07v0l0,0,.06-.09Z"/><path class="cls-1" d="M117,73.53a2.35,2.35,0,0,0,.15.86,2.12,2.12,0,0,0,.43.69,2,2,0,0,0,.66.46,2.17,2.17,0,0,0,1.68,0,2,2,0,0,0,.66-.46,2.12,2.12,0,0,0,.43-.69,2.45,2.45,0,0,0,0-1.71,2.15,2.15,0,0,0-.43-.7,2.06,2.06,0,0,0-3,0,2.14,2.14,0,0,0-.43.7A2.36,2.36,0,0,0,117,73.53Zm-2.14,0a4.21,4.21,0,0,1,.58-2.14,4.29,4.29,0,0,1,.66-.86,4.12,4.12,0,0,1,.85-.66,4.34,4.34,0,0,1,1-.43,4.23,4.23,0,0,1,2.25,0,4.33,4.33,0,0,1,1,.43,4.2,4.2,0,0,1,1.52,1.52,4.39,4.39,0,0,1,.43,1,4.24,4.24,0,0,1,0,2.25,4.28,4.28,0,0,1-.43,1,4.16,4.16,0,0,1-.66.85,4.32,4.32,0,0,1-.86.66,4.23,4.23,0,0,1-4.27,0,4.29,4.29,0,0,1-1.52-1.51,4.14,4.14,0,0,1-.43-1A4.21,4.21,0,0,1,114.85,73.54Z"/><path class="cls-1" d="M131.51,69.35a.28.28,0,0,1,.06-.19.24.24,0,0,1,.19-.07h3.64a2.47,2.47,0,0,1,.74.11,2.52,2.52,0,0,1,.64.3,2.6,2.6,0,0,1,.52.46,2.92,2.92,0,0,1,.64,1.22,2.82,2.82,0,0,1-.1,1.69,2.75,2.75,0,0,1-.53.87,2.68,2.68,0,0,1-.82.62,2.4,2.4,0,0,1-1.06.24h-1.72v2.71q0,.24-.26.24h-1.69a.27.27,0,0,1-.18-.06.23.23,0,0,1-.07-.19Zm4.29,2.5a1,1,0,0,0-.06-.34,1,1,0,0,0-.17-.3.92.92,0,0,0-.28-.22.77.77,0,0,0-.37-.09h-1.21v1.9h1.21a.81.81,0,0,0,.37-.08.86.86,0,0,0,.28-.21.94.94,0,0,0,.17-.3A1.06,1.06,0,0,0,135.8,71.85Z"/><path class="cls-1" d="M144.21,73.32a2.42,2.42,0,0,0,.16.88,2.18,2.18,0,0,0,.45.71,2.08,2.08,0,0,0,.68.48,2.24,2.24,0,0,0,1.73,0,2.07,2.07,0,0,0,.68-.48,2.18,2.18,0,0,0,.45-.71,2.52,2.52,0,0,0,0-1.76,2.21,2.21,0,0,0-.45-.72,2.12,2.12,0,0,0-3.09,0,2.21,2.21,0,0,0-.45.72A2.43,2.43,0,0,0,144.21,73.32Zm-2.21,0a4.33,4.33,0,0,1,.59-2.2,4.42,4.42,0,0,1,.68-.89,4.24,4.24,0,0,1,.88-.68,4.46,4.46,0,0,1,1-.44,4.36,4.36,0,0,1,2.32,0,4.45,4.45,0,0,1,1,.44,4.33,4.33,0,0,1,1.56,1.57,4.52,4.52,0,0,1,.44,1,4.37,4.37,0,0,1,0,2.32,4.41,4.41,0,0,1-.44,1,4.28,4.28,0,0,1-.68.88,4.45,4.45,0,0,1-.88.68,4.36,4.36,0,0,1-4.4,0,4.38,4.38,0,0,1-.88-.68,4.42,4.42,0,0,1-.68-.88,4.26,4.26,0,0,1-.44-1A4.33,4.33,0,0,1,142,73.33Z"/><path class="cls-1" d="M154.69,69.35a.28.28,0,0,1,.06-.19.24.24,0,0,1,.19-.07h3.67a2.75,2.75,0,0,1,1.1.22,2.86,2.86,0,0,1,.89.6,2.78,2.78,0,0,1,.6.88,2.67,2.67,0,0,1,.22,1.07,2.55,2.55,0,0,1-.11.74,2.75,2.75,0,0,1-.29.66,2.78,2.78,0,0,1-.45.55,2.92,2.92,0,0,1-.57.42L161.48,77l.1.19a.39.39,0,0,1,.06.19.17.17,0,0,1-.06.14.25.25,0,0,1-.16,0h-2a.28.28,0,0,1-.17-.06.26.26,0,0,1-.1-.15l-1.38-2.6h-.92v2.57q0,.24-.26.24h-1.69a.27.27,0,0,1-.18-.06.23.23,0,0,1-.07-.19Zm4.45,2.53a1,1,0,0,0-.06-.34,1.11,1.11,0,0,0-.18-.31,1,1,0,0,0-.27-.24.92.92,0,0,0-.35-.13l-.3,0h-1.08v2.09h1.22l.18,0a.89.89,0,0,0,.36-.12.93.93,0,0,0,.27-.23,1,1,0,0,0,.16-.31A1.14,1.14,0,0,0,159.13,71.89Z"/><path class="cls-1" d="M165.62,69.34a.23.23,0,0,1,.08-.18.28.28,0,0,1,.19-.07H172a.29.29,0,0,1,.18.06.26.26,0,0,1,.09.19v1.42a.32.32,0,0,1-.07.2.24.24,0,0,1-.2.09h-2v6.24a.27.27,0,0,1-.07.19.25.25,0,0,1-.19.08h-1.67a.27.27,0,0,1-.18-.08.25.25,0,0,1-.09-.19V71h-2a.26.26,0,0,1-.19-.07.29.29,0,0,1-.08-.22Z"/><path class="cls-1" d="M178.46,74.18a2,2,0,0,0,.12.72,1.35,1.35,0,0,0,.31.48,1.16,1.16,0,0,0,.44.27,1.63,1.63,0,0,0,.53.09,1.45,1.45,0,0,0,.54-.1,1.25,1.25,0,0,0,.44-.3,1.42,1.42,0,0,0,.3-.49,1.87,1.87,0,0,0,.11-.67V69.34a.25.25,0,0,1,.07-.18.25.25,0,0,1,.19-.07h1.66a.27.27,0,0,1,.21.08.24.24,0,0,1,.07.17v4.81a4.23,4.23,0,0,1-.29,1.68,2.88,2.88,0,0,1-.79,1.09,3,3,0,0,1-1.15.59,5.13,5.13,0,0,1-1.37.18,5,5,0,0,1-1.37-.19,3,3,0,0,1-1.15-.6,2.93,2.93,0,0,1-.79-1.09,4.16,4.16,0,0,1-.29-1.66V69.34a.26.26,0,0,1,.07-.17.2.2,0,0,1,.16-.08h1.71a.3.3,0,0,1,.18.07.22.22,0,0,1,.09.18Z"/><path class="cls-1" d="M193.07,71.48a2.46,2.46,0,0,0-.62-.32,2.15,2.15,0,0,0-.7-.11,2.05,2.05,0,0,0-1.54.67,2.25,2.25,0,0,0-.44.72,2.5,2.5,0,0,0,0,1.75,2.23,2.23,0,0,0,.44.71,2,2,0,0,0,.67.48,2.08,2.08,0,0,0,.86.18l.39,0,.42-.07V74a.26.26,0,0,1,.06-.18.24.24,0,0,1,.19-.07h1.55a.32.32,0,0,1,.18.07.21.21,0,0,1,.1.18v2.76a.29.29,0,0,1-.17.25,3.12,3.12,0,0,1-.59.31,4.87,4.87,0,0,1-.68.22,6,6,0,0,1-.71.13,6,6,0,0,1-.7,0,4.3,4.3,0,0,1-2.2-.59,4.37,4.37,0,0,1-.88-.68,4.42,4.42,0,0,1-.68-.88,4.26,4.26,0,0,1-.44-1,4.37,4.37,0,0,1,.44-3.36,4.41,4.41,0,0,1,.68-.89,4.26,4.26,0,0,1,.88-.68,4.46,4.46,0,0,1,1-.44,4.39,4.39,0,0,1,2.44,0,4.42,4.42,0,0,1,1.14.55.39.39,0,0,1,.15.15.2.2,0,0,1,0,.21l-.92,1.34a.4.4,0,0,1-.15.12A.22.22,0,0,1,193.07,71.48Z"/><path class="cls-1" d="M200.81,74.18a2,2,0,0,0,.12.72,1.35,1.35,0,0,0,.31.48,1.16,1.16,0,0,0,.44.27,1.63,1.63,0,0,0,.53.09,1.45,1.45,0,0,0,.54-.1,1.25,1.25,0,0,0,.44-.3,1.42,1.42,0,0,0,.3-.49,1.87,1.87,0,0,0,.11-.67V69.34a.25.25,0,0,1,.07-.18.25.25,0,0,1,.19-.07h1.66a.27.27,0,0,1,.21.08.24.24,0,0,1,.07.17v4.81a4.23,4.23,0,0,1-.29,1.68,2.88,2.88,0,0,1-.79,1.09,3,3,0,0,1-1.15.59,5.13,5.13,0,0,1-1.37.18,5,5,0,0,1-1.37-.19,3,3,0,0,1-1.15-.6,2.93,2.93,0,0,1-.79-1.09,4.16,4.16,0,0,1-.29-1.66V69.34a.26.26,0,0,1,.07-.17.2.2,0,0,1,.16-.08h1.71a.3.3,0,0,1,.18.07.22.22,0,0,1,.09.18Z"/><path class="cls-1" d="M209.78,69.35a.27.27,0,0,1,.07-.19.24.24,0,0,1,.18-.07h5.65a.25.25,0,0,1,.19.07.28.28,0,0,1,.07.2v1.41a.3.3,0,0,1-.07.19.24.24,0,0,1-.2.09H212v1.41h2.84a.3.3,0,0,1,.18.05.2.2,0,0,1,.07.17v1.23a.24.24,0,0,1-.06.15.22.22,0,0,1-.18.07H212v1.45h3.82a.23.23,0,0,1,.26.26v1.43a.14.14,0,0,1,0,.1q0,.16-.23.16H210a.27.27,0,0,1-.18-.06.23.23,0,0,1-.07-.19Z"/><path class="cls-1" d="M221.59,74.82l.25.21a3.32,3.32,0,0,0,.34.26,2.89,2.89,0,0,0,.57.3,1.66,1.66,0,0,0,.6.11,1.55,1.55,0,0,0,.49-.07.82.82,0,0,0,.31-.17.62.62,0,0,0,.16-.25.93.93,0,0,0,0-.3.44.44,0,0,0-.13-.32,1.38,1.38,0,0,0-.33-.25,2.77,2.77,0,0,0-.4-.19l-.36-.13a8.31,8.31,0,0,1-1.19-.52,3.68,3.68,0,0,1-.85-.61,2.3,2.3,0,0,1-.51-.75,2.33,2.33,0,0,1-.17-.91,2.14,2.14,0,0,1,.21-1,2.11,2.11,0,0,1,.61-.74,2.9,2.9,0,0,1,1-.48,4.32,4.32,0,0,1,1.25-.17,4.14,4.14,0,0,1,1,.12,3.78,3.78,0,0,1,.94.37l.37.24.3.24a1.45,1.45,0,0,1,.21.22.31.31,0,0,1,.08.18.26.26,0,0,1,0,.14.87.87,0,0,1-.11.14l-.87.93a.28.28,0,0,1-.19.1.25.25,0,0,1-.14,0l-.15-.11-.05,0-.25-.2a2.25,2.25,0,0,0-.3-.19,2,2,0,0,0-.34-.14,1.21,1.21,0,0,0-.36-.05,1.88,1.88,0,0,0-.35,0,1,1,0,0,0-.29.1.55.55,0,0,0-.2.18.53.53,0,0,0,0,.55.79.79,0,0,0,.24.22,2.21,2.21,0,0,0,.4.19l.55.19q.6.2,1.11.42a3.74,3.74,0,0,1,.88.52,2.14,2.14,0,0,1,.58.72,2.25,2.25,0,0,1,.21,1,2.5,2.5,0,0,1-.26,1.14,2.6,2.6,0,0,1-.7.87,3.29,3.29,0,0,1-1.05.56,4.16,4.16,0,0,1-1.3.2,3.66,3.66,0,0,1-1.28-.23,4.93,4.93,0,0,1-1.18-.63,3,3,0,0,1-.38-.33l-.25-.26,0,0h0a.4.4,0,0,1-.13-.23.33.33,0,0,1,.13-.22l1-.94a.37.37,0,0,1,.19-.09.21.21,0,0,1,.11,0Z"/><path class="cls-1" d="M233.71,69.31a.17.17,0,0,1,0-.07l.08-.07.1-.05.1,0h1.46a.24.24,0,0,1,.16.06l.1.11.14.32,3,7.72a.17.17,0,0,1,0,.19.28.28,0,0,1-.22.07H237a.36.36,0,0,1-.2,0,.31.31,0,0,1-.11-.16l-.22-.58-.22-.58h-3l-.22.58-.22.58a.28.28,0,0,1-.29.21h-1.68a.28.28,0,0,1-.18-.06.13.13,0,0,1,0-.17Zm1,2.44q-.11.29-.22.63l-.22.68-.22.67q-.11.33-.22.62h1.75Z"/><path class="cls-1" d="M9.19,5.88C11.9,15,14.54,20.33,21.06,27.32c6.11,6.56,13.05,11,21,14.94l-.76,2.93C32.39,41.41,24.66,38,17.27,29.68,11.67,23.4,7.91,17.8,4.89,8.84Z"/><path class="cls-1" d="M10.76,35.47C2.33,25.31,1.11,12.95,8,7.85s19.39-1,27.83,9.17,9.65,22.52,2.72,27.62-19.39,1-27.83-9.17ZM32,9C22.41,1,12.92-1.52,4.74,5.62c-7,6.15-5.63,17.51.21,27.93V57.23H53.74V9Z"/><path class="cls-1" d="M208.55,34.5V46.32c0,1.56.88,2.83,2,2.83s2-1.27,2-2.83c0,0,0-4.21,0-7.59H224v5.18c0,7.83-6,14.17-13.44,14.17s-13.44-6.34-13.44-14.17V26c0-7.83,6-14.17,13.44-14.17S224,18.18,224,26v8.5H208.55Zm-.31-11.1v6.29h4.24V23.4c0-1.56-.95-2.83-2.12-2.83s-2.12,1.27-2.12,2.83Z"/><path class="cls-1" d="M83.66,38.89v5c0,7.83-6,14.17-13.44,14.17S56.77,51.73,56.77,43.91V26c0-7.83,6-14.17,13.44-14.17S83.65,18.18,83.65,26v8.5H72.17V23.4c0-1.56-.88-2.83-2-2.83s-2,1.27-2,2.83V46.32c0,1.56.88,2.83,2,2.83s2-1.27,2-2.83c0,0,0-4.21,0-7.59H83.66Z"/><path class="cls-1" d="M98.66,39.38c0-1.57,1-2.83,2.12-2.83s2.12,1.27,2.12,2.83v6.89c0,1.57-1,2.83-2.12,2.83s-2.12-1.27-2.12-2.83V39.38Zm15.61,4.53V26c0-7.83-6-14.17-13.44-14.17S87.37,18.18,87.37,26l.11.82H98.83V23.4c0-1.56.88-2.83,2-2.83s2,1.27,2,2.83v5c-3.93,0-7.64.74-9.86,2.25-3,2-5.54,5.69-5.54,9.56v3.74c0,7.83,6,14.17,13.44,14.17h13.45V43.92Z"/><ellipse class="cls-2" cx="186.75" cy="6.5" rx="6.49" ry="6.5"/><rect class="cls-2" x="180.77" y="17.66" width="11.31" height="40.42"/><path class="cls-1" d="M132.12,8.16c2.11,0,1.9,2,1.9,4.51V25.78h10.63V14.07C144.66,5,138.84.55,131.85.55c-7.55,0-13.1,6.06-13.1,13.53V57.95h11.34V34.57h14.57V29H130.26V12.49C130.26,10.13,130.11,8.16,132.12,8.16Z"/><path class="cls-1" d="M163.27,8.16c2.11,0,1.9,2,1.9,4.51V25.78H175.8V14.07C175.8,5,170,.55,163,.55c-7.55,0-13.1,6.06-13.1,13.53V57.95h11.34V34.57H175.8V29H161.41V12.49C161.41,10.13,161.26,8.16,163.27,8.16Z"/><path class="cls-1" d="M239.69,58.08V23.59c0-1.56.23-2.83,2-2.83s2,1.27,2,2.83c0,0,0,7.56,0,10.94h11.49V26c0-7.83-6-14.17-13.44-14.17s-3.58,0-13.44,0V58.08Z"/></g></g></svg>