<svg width="103" height="69" viewBox="0 0 103 69" fill="none" xmlns="http://www.w3.org/2000/svg">
<path d="M1.5 1.5H101.5V67.5H1.5V1.5Z" fill="white" stroke="black" stroke-width="3"/>
<path d="M58.8789 38L47.7576 47.0605L58.8789 56.1211" stroke="black" stroke-width="2"/>
<path d="M78.8789 56.1211L90.0002 47.0605L78.8789 38" stroke="black" stroke-width="2"/>
<path d="M63.3819 60.8468L74.0005 34.0001" stroke="black" stroke-width="2"/>
<rect y="11" width="40" height="14" fill="black"/>
<rect y="27" width="40" height="14" fill="black"/>
<path d="M14.1035 23H12.7207V19.0156C12.7207 18.5156 12.6191 18.1426 12.416 17.8965C12.2168 17.6504 11.8984 17.5273 11.4609 17.5273C10.8828 17.5273 10.457 17.7012 10.1836 18.0488C9.91406 18.3926 9.7793 18.9707 9.7793 19.7832V23H8.40234V13.8828H9.7793V16.1973C9.7793 16.5684 9.75586 16.9648 9.70898 17.3867H9.79688C9.98438 17.0742 10.2441 16.832 10.5762 16.6602C10.9121 16.4883 11.3027 16.4023 11.748 16.4023C13.3184 16.4023 14.1035 17.1934 14.1035 18.7754V23ZM18.4336 22.0039C18.7695 22.0039 19.1055 21.9512 19.4414 21.8457V22.8828C19.2891 22.9492 19.0918 23.0039 18.8496 23.0469C18.6113 23.0938 18.3633 23.1172 18.1055 23.1172C16.8008 23.1172 16.1484 22.4297 16.1484 21.0547V17.5625H15.2637V16.9531L16.2129 16.4492L16.6816 15.0781H17.5312V16.5195H19.377V17.5625H17.5312V21.0312C17.5312 21.3633 17.6133 21.6094 17.7773 21.7695C17.9453 21.9258 18.1641 22.0039 18.4336 22.0039ZM26.2031 23H24.8203V19.0039C24.8203 18.5078 24.7266 18.1387 24.5391 17.8965C24.3516 17.6504 24.0586 17.5273 23.6602 17.5273C23.1289 17.5273 22.7383 17.7012 22.4883 18.0488C22.2422 18.3926 22.1191 18.9668 22.1191 19.7715V23H20.7422V16.5195H21.8203L22.0137 17.3691H22.084C22.2637 17.0605 22.5234 16.8223 22.8633 16.6543C23.207 16.4863 23.584 16.4023 23.9941 16.4023C24.9902 16.4023 25.6504 16.7422 25.9746 17.4219H26.0684C26.2598 17.1016 26.5293 16.8516 26.877 16.6719C27.2246 16.4922 27.623 16.4023 28.0723 16.4023C28.8457 16.4023 29.4082 16.5977 29.7598 16.9883C30.1152 17.3789 30.293 17.9746 30.293 18.7754V23H28.916V19.0039C28.916 18.5078 28.8203 18.1387 28.6289 17.8965C28.4414 17.6504 28.1484 17.5273 27.75 17.5273C27.2148 17.5273 26.8223 17.6953 26.5723 18.0312C26.3262 18.3633 26.2031 18.875 26.2031 19.5664V23ZM33.5918 23H32.2148V13.8828H33.5918V23Z" fill="white"/>
<path d="M11.7793 38.1172C10.7988 38.1172 10.0527 37.832 9.54102 37.2617C9.0332 36.6875 8.7793 35.8652 8.7793 34.7949C8.7793 33.7051 9.04492 32.8672 9.57617 32.2812C10.1113 31.6953 10.8828 31.4023 11.8906 31.4023C12.5742 31.4023 13.1895 31.5293 13.7363 31.7832L13.3203 32.8906C12.7383 32.6641 12.2578 32.5508 11.8789 32.5508C10.7578 32.5508 10.1973 33.2949 10.1973 34.7832C10.1973 35.5098 10.3359 36.0566 10.6133 36.4238C10.8945 36.7871 11.3047 36.9688 11.8438 36.9688C12.457 36.9688 13.0371 36.8164 13.584 36.5117V37.7129C13.3379 37.8574 13.0742 37.9609 12.793 38.0234C12.5156 38.0859 12.1777 38.1172 11.7793 38.1172ZM19.4609 36.1543C19.4609 36.7871 19.2305 37.2734 18.7695 37.6133C18.3086 37.9492 17.6484 38.1172 16.7891 38.1172C15.9258 38.1172 15.2324 37.9863 14.709 37.7246V36.5352C15.4707 36.8867 16.1797 37.0625 16.8359 37.0625C17.6836 37.0625 18.1074 36.8066 18.1074 36.2949C18.1074 36.1309 18.0605 35.9941 17.9668 35.8848C17.873 35.7754 17.7188 35.6621 17.5039 35.5449C17.2891 35.4277 16.9902 35.2949 16.6074 35.1465C15.8613 34.8574 15.3555 34.5684 15.0898 34.2793C14.8281 33.9902 14.6973 33.6152 14.6973 33.1543C14.6973 32.5996 14.9199 32.1699 15.3652 31.8652C15.8145 31.5566 16.4238 31.4023 17.1934 31.4023C17.9551 31.4023 18.6758 31.5566 19.3555 31.8652L18.9102 32.9023C18.2109 32.6133 17.623 32.4688 17.1465 32.4688C16.4199 32.4688 16.0566 32.6758 16.0566 33.0898C16.0566 33.293 16.1504 33.4648 16.3379 33.6055C16.5293 33.7461 16.9434 33.9395 17.5801 34.1855C18.1152 34.3926 18.5039 34.582 18.7461 34.7539C18.9883 34.9258 19.168 35.125 19.2852 35.3516C19.4023 35.5742 19.4609 35.8418 19.4609 36.1543ZM25.3086 36.1543C25.3086 36.7871 25.0781 37.2734 24.6172 37.6133C24.1562 37.9492 23.4961 38.1172 22.6367 38.1172C21.7734 38.1172 21.0801 37.9863 20.5566 37.7246V36.5352C21.3184 36.8867 22.0273 37.0625 22.6836 37.0625C23.5312 37.0625 23.9551 36.8066 23.9551 36.2949C23.9551 36.1309 23.9082 35.9941 23.8145 35.8848C23.7207 35.7754 23.5664 35.6621 23.3516 35.5449C23.1367 35.4277 22.8379 35.2949 22.4551 35.1465C21.709 34.8574 21.2031 34.5684 20.9375 34.2793C20.6758 33.9902 20.5449 33.6152 20.5449 33.1543C20.5449 32.5996 20.7676 32.1699 21.2129 31.8652C21.6621 31.5566 22.2715 31.4023 23.041 31.4023C23.8027 31.4023 24.5234 31.5566 25.2031 31.8652L24.7578 32.9023C24.0586 32.6133 23.4707 32.4688 22.9941 32.4688C22.2676 32.4688 21.9043 32.6758 21.9043 33.0898C21.9043 33.293 21.998 33.4648 22.1855 33.6055C22.377 33.7461 22.791 33.9395 23.4277 34.1855C23.9629 34.3926 24.3516 34.582 24.5938 34.7539C24.8359 34.9258 25.0156 35.125 25.1328 35.3516C25.25 35.5742 25.3086 35.8418 25.3086 36.1543Z" fill="white"/>
</svg>
